# xmcd
#
# Track frame offsets:
#	150
#	29494
#	52110
#	76333
#	113460
#	138301
#	170587
#	196416
#	235316
#	259344
#
# Disc length: 4171 seconds
#
# Revision: 1
# Processed by: cddbd v1.5.1PL0 Copyright (c) Steve Scherf et al.
# Submitted via: audiograbber 1.83.01
#
DISCID=8810490a
DTITLE=Massive Attack - Bluesy Trip Hop (Pink Pop Fstival, 06-08-2003)
DYEAR=2003
DGENRE=Trip-Hop
TTITLE0=Future Proof
TTITLE1=Rising Son
TTITLE2=Karmacoma
TTITLE3=Special Cases
TTITLE4=Teardrop
TTITLE5=Safe From Harm
TTITLE6=Inertia Creeps
TTITLE7=Antistar
TTITLE8=Unfinished Sympathy
TTITLE9=Group Four
EXTD=
EXTT0=
EXTT1=
EXTT2=
EXTT3=
EXTT4=
EXTT5=
EXTT6=
EXTT7=
EXTT8=
EXTT9=
PLAYORDER=
